# Blender v2.79 (sub 0) OBJ File: ''
# www.blender.org
mtllib primative_cursor.mtl
o Sphere
v -0.000000 0.500000 -0.000000
v 0.000000 1.000000 -0.500000
v -0.000000 0.000000 -0.000000
v -0.097545 1.000000 -0.490393
v -0.191342 1.000000 -0.461940
v -0.277785 1.000000 -0.415735
v -0.353553 1.000000 -0.353553
v -0.415735 1.000000 -0.277785
v -0.461940 1.000000 -0.191342
v -0.490393 1.000000 -0.097545
v -0.500000 1.000000 -0.000000
v -0.490393 1.000000 0.097545
v -0.461940 1.000000 0.191342
v -0.415735 1.000000 0.277785
v -0.353553 1.000000 0.353553
v -0.277785 1.000000 0.415735
v -0.191342 1.000000 0.461940
v -0.097545 1.000000 0.490393
v 0.000000 1.000000 0.500000
v 0.097545 1.000000 0.490393
v 0.191342 1.000000 0.461940
v 0.277785 1.000000 0.415735
v 0.353554 1.000000 0.353553
v 0.415735 1.000000 0.277785
v 0.461940 1.000000 0.191341
v 0.490393 1.000000 0.097545
v 0.500000 1.000000 -0.000000
v 0.490393 1.000000 -0.097546
v 0.461940 1.000000 -0.191342
v 0.415734 1.000000 -0.277786
v 0.353553 1.000000 -0.353554
v 0.277785 1.000000 -0.415735
v 0.191341 1.000000 -0.461940
v 0.097544 1.000000 -0.490393
v 0.195089 1.000000 -0.980786
v 0.382682 1.000000 -0.923880
v 0.555569 1.000000 -0.831470
v 0.707106 1.000000 -0.707108
v 0.831469 1.000000 -0.555571
v 0.923879 1.000000 -0.382684
v 0.980785 1.000000 -0.195091
v 1.000000 1.000000 -0.000001
v 0.980785 1.000000 0.195089
v 0.923880 1.000000 0.382683
v 0.831470 1.000000 0.555570
v 0.707107 1.000000 0.707106
v 0.555571 1.000000 0.831469
v 0.382684 1.000000 0.923879
v 0.195091 1.000000 0.980785
v 0.000000 1.000000 1.000000
v -0.195090 1.000000 0.980785
v -0.382683 1.000000 0.923880
v -0.555570 1.000000 0.831470
v -0.707107 1.000000 0.707107
v -0.831470 1.000000 0.555570
v -0.923880 1.000000 0.382683
v -0.980785 1.000000 0.195090
v -1.000000 1.000000 -0.000000
v -0.980785 1.000000 -0.195090
v -0.923880 1.000000 -0.382683
v -0.831470 1.000000 -0.555570
v -0.707107 1.000000 -0.707107
v -0.555570 1.000000 -0.831470
v -0.382683 1.000000 -0.923880
v -0.195090 1.000000 -0.980785
v 0.000000 1.000000 -1.000000
vn 0.0000 1.0000 0.0000
vn 0.0695 -0.7054 0.7054
vn -0.4497 -0.7054 -0.5479
vn 0.2058 -0.7054 -0.6783
vn 0.4497 -0.7054 0.5479
vn 0.2058 -0.7054 0.6783
vn -0.6783 -0.7054 -0.2058
vn -0.5479 -0.7054 -0.4497
vn 0.5479 -0.7054 0.4497
vn 0.0695 -0.7054 -0.7054
vn -0.7054 -0.7054 -0.0695
vn 0.3341 -0.7054 0.6251
vn 0.6251 -0.7054 0.3341
vn -0.6251 -0.7054 -0.3341
vn -0.7054 -0.7054 0.0695
vn 0.6783 -0.7054 0.2058
vn -0.6783 -0.7054 0.2058
vn 0.7054 -0.7054 0.0695
vn -0.6251 -0.7054 0.3341
vn 0.7054 -0.7054 -0.0695
vn -0.5479 -0.7054 0.4497
vn 0.6783 -0.7054 -0.2058
vn -0.4497 -0.7054 0.5479
vn 0.6251 -0.7054 -0.3341
vn -0.3341 -0.7054 0.6251
vn -0.0695 -0.7054 -0.7054
vn 0.5479 -0.7054 -0.4497
vn -0.2058 -0.7054 0.6783
vn -0.2058 -0.7054 -0.6783
vn 0.4497 -0.7054 -0.5479
vn -0.0695 -0.7054 0.7054
vn -0.3341 -0.7054 -0.6251
vn 0.3341 -0.7054 -0.6251
vn 0.0695 0.7054 0.7054
vn 0.6783 0.7054 -0.2058
vn -0.6783 0.7054 -0.2058
vn 0.6251 0.7054 -0.3341
vn -0.7054 0.7054 -0.0695
vn 0.5479 0.7054 -0.4497
vn -0.7054 0.7054 0.0695
vn 0.4497 0.7054 -0.5479
vn -0.6783 0.7054 0.2058
vn 0.3341 0.7054 -0.6251
vn -0.6251 0.7054 0.3341
vn 0.2058 0.7054 -0.6783
vn 0.2058 0.7054 0.6783
vn -0.5479 0.7054 0.4497
vn 0.0695 0.7054 -0.7054
vn 0.3341 0.7054 0.6251
vn -0.4497 0.7054 0.5479
vn -0.0695 0.7054 -0.7054
vn 0.4497 0.7054 0.5479
vn -0.3341 0.7054 0.6251
vn -0.2058 0.7054 -0.6783
vn 0.5479 0.7054 0.4497
vn -0.2058 0.7054 0.6783
vn -0.3341 0.7054 -0.6251
vn 0.6251 0.7054 0.3341
vn -0.0695 0.7054 0.7054
vn -0.4497 0.7054 -0.5479
vn 0.6783 0.7054 0.2058
vn -0.5479 0.7054 -0.4497
vn 0.7054 0.7054 0.0695
vn -0.6251 0.7054 -0.3341
vn 0.7054 0.7054 -0.0695
usemtl None
s off
f 50//1 49//1 20//1 19//1
f 63//1 62//1 7//1 6//1
f 36//1 35//1 34//1 33//1
f 47//1 46//1 23//1 22//1
f 49//1 48//1 21//1 20//1
f 60//1 59//1 10//1 9//1
f 62//1 61//1 8//1 7//1
f 46//1 45//1 24//1 23//1
f 35//1 66//1 2//1 34//1
f 59//1 58//1 11//1 10//1
f 48//1 47//1 22//1 21//1
f 45//1 44//1 25//1 24//1
f 61//1 60//1 9//1 8//1
f 58//1 57//1 12//1 11//1
f 44//1 43//1 26//1 25//1
f 57//1 56//1 13//1 12//1
f 43//1 42//1 27//1 26//1
f 56//1 55//1 14//1 13//1
f 42//1 41//1 28//1 27//1
f 55//1 54//1 15//1 14//1
f 41//1 40//1 29//1 28//1
f 54//1 53//1 16//1 15//1
f 40//1 39//1 30//1 29//1
f 53//1 52//1 17//1 16//1
f 66//1 65//1 4//1 2//1
f 39//1 38//1 31//1 30//1
f 52//1 51//1 18//1 17//1
f 65//1 64//1 5//1 4//1
f 38//1 37//1 32//1 31//1
f 51//1 50//1 19//1 18//1
f 64//1 63//1 6//1 5//1
f 37//1 36//1 33//1 32//1
f 49//2 50//2 3//2
f 62//3 63//3 3//3
f 35//4 36//4 3//4
f 46//5 47//5 3//5
f 48//6 49//6 3//6
f 59//7 60//7 3//7
f 61//8 62//8 3//8
f 45//9 46//9 3//9
f 66//10 35//10 3//10
f 58//11 59//11 3//11
f 47//12 48//12 3//12
f 44//13 45//13 3//13
f 60//14 61//14 3//14
f 57//15 58//15 3//15
f 43//16 44//16 3//16
f 56//17 57//17 3//17
f 42//18 43//18 3//18
f 55//19 56//19 3//19
f 41//20 42//20 3//20
f 54//21 55//21 3//21
f 40//22 41//22 3//22
f 53//23 54//23 3//23
f 39//24 40//24 3//24
f 52//25 53//25 3//25
f 65//26 66//26 3//26
f 38//27 39//27 3//27
f 51//28 52//28 3//28
f 64//29 65//29 3//29
f 37//30 38//30 3//30
f 50//31 51//31 3//31
f 63//32 64//32 3//32
f 36//33 37//33 3//33
f 2//34 4//34 1//34
f 12//35 13//35 1//35
f 25//36 26//36 1//36
f 13//37 14//37 1//37
f 26//38 27//38 1//38
f 14//39 15//39 1//39
f 27//40 28//40 1//40
f 15//41 16//41 1//41
f 28//42 29//42 1//42
f 16//43 17//43 1//43
f 29//44 30//44 1//44
f 17//45 18//45 1//45
f 4//46 5//46 1//46
f 30//47 31//47 1//47
f 18//48 19//48 1//48
f 5//49 6//49 1//49
f 31//50 32//50 1//50
f 19//51 20//51 1//51
f 6//52 7//52 1//52
f 32//53 33//53 1//53
f 20//54 21//54 1//54
f 7//55 8//55 1//55
f 33//56 34//56 1//56
f 21//57 22//57 1//57
f 8//58 9//58 1//58
f 34//59 2//59 1//59
f 22//60 23//60 1//60
f 9//61 10//61 1//61
f 23//62 24//62 1//62
f 10//63 11//63 1//63
f 24//64 25//64 1//64
f 11//65 12//65 1//65
